<svg width="22" height="22" viewBox="0 0 22 22" fill="none" xmlns="http://www.w3.org/2000/svg">
<path d="M14.71 7.28999C14.617 7.19626 14.5064 7.12187 14.3846 7.0711C14.2627 7.02033 14.132 6.99419 14 6.99419C13.868 6.99419 13.7373 7.02033 13.6154 7.0711C13.4936 7.12187 13.383 7.19626 13.29 7.28999L11 9.58999L8.71 7.28999C8.5217 7.10168 8.2663 6.9959 8 6.9959C7.7337 6.9959 7.4783 7.10168 7.29 7.28999C7.1017 7.47829 6.99591 7.73369 6.99591 7.99999C6.99591 8.26629 7.1017 8.52168 7.29 8.70999L9.59 11L7.29 13.29C7.19627 13.383 7.12188 13.4936 7.07111 13.6154C7.02034 13.7373 6.9942 13.868 6.9942 14C6.9942 14.132 7.02034 14.2627 7.07111 14.3846C7.12188 14.5064 7.19627 14.617 7.29 14.71C7.38296 14.8037 7.49356 14.8781 7.61542 14.9289C7.73728 14.9796 7.86799 15.0058 8 15.0058C8.13201 15.0058 8.26272 14.9796 8.38458 14.9289C8.50643 14.8781 8.61704 14.8037 8.71 14.71L11 12.41L13.29 14.71C13.383 14.8037 13.4936 14.8781 13.6154 14.9289C13.7373 14.9796 13.868 15.0058 14 15.0058C14.132 15.0058 14.2627 14.9796 14.3846 14.9289C14.5064 14.8781 14.617 14.8037 14.71 14.71C14.8037 14.617 14.8781 14.5064 14.9289 14.3846C14.9797 14.2627 15.0058 14.132 15.0058 14C15.0058 13.868 14.9797 13.7373 14.9289 13.6154C14.8781 13.4936 14.8037 13.383 14.71 13.29L12.41 11L14.71 8.70999C14.8037 8.61702 14.8781 8.50642 14.9289 8.38456C14.9797 8.26271 15.0058 8.132 15.0058 7.99999C15.0058 7.86798 14.9797 7.73727 14.9289 7.61541C14.8781 7.49355 14.8037 7.38295 14.71 7.28999ZM18.07 3.92999C17.1475 2.97489 16.0441 2.21306 14.824 1.68897C13.604 1.16488 12.2918 0.889021 10.964 0.877483C9.63622 0.865945 8.31942 1.11896 7.09046 1.62177C5.8615 2.12458 4.74498 2.86711 3.80605 3.80604C2.86712 4.74497 2.12459 5.86148 1.62178 7.09045C1.11897 8.31941 0.865957 9.63621 0.877495 10.964C0.889033 12.2918 1.1649 13.604 1.68899 14.824C2.21308 16.0441 2.9749 17.1475 3.93 18.07C4.85247 19.0251 5.95591 19.7869 7.17595 20.311C8.39599 20.8351 9.70819 21.111 11.036 21.1225C12.3638 21.134 13.6806 20.881 14.9095 20.3782C16.1385 19.8754 17.255 19.1329 18.194 18.1939C19.1329 17.255 19.8754 16.1385 20.3782 14.9095C20.881 13.6806 21.134 12.3638 21.1225 11.036C21.111 9.70818 20.8351 8.39598 20.311 7.17594C19.7869 5.9559 19.0251 4.85246 18.07 3.92999ZM16.66 16.66C15.352 17.9694 13.6305 18.7848 11.7888 18.9673C9.94705 19.1498 8.099 18.688 6.55952 17.6608C5.02004 16.6335 3.88436 15.1042 3.34597 13.3335C2.80759 11.5627 2.8998 9.66013 3.60691 7.94977C4.31402 6.23941 5.59227 4.82714 7.22389 3.95355C8.85551 3.07996 10.7395 2.79912 12.555 3.15886C14.3705 3.5186 16.005 4.49668 17.1802 5.92645C18.3554 7.35622 18.9985 9.14923 19 11C19.0036 12.0513 18.7986 13.0928 18.3969 14.0644C17.9953 15.0359 17.4049 15.9181 16.66 16.66Z" fill="#6C7074"/>
</svg>
